# xmcd CD database file
#
# Track frame offsets:
#	150
#	32510
#	65544
#	101807
#	136948
#	174042
#	206645
#
# Disc length: 3329 seconds
#
# Revision: 0
# Processed by: cddbd v1.5.1PL0 Copyright (c) Steve Scherf et al.
# Submitted via: CDex 1.51
#
DISCID=580cff07
DTITLE=kevin kendle - Butterflies
DYEAR=2003
DGENRE=New Age
TTITLE0=Butterfly Meadow
TTITLE1=Holly Blue
TTITLE2=Speckled Wood
TTITLE3=Red Admiral
TTITLE4=Iridescence
TTITLE5=Brimstone
TTITLE6=Transformation
EXTD=YEAR: 2003
EXTT0=
EXTT1=
EXTT2=
EXTT3=
EXTT4=
EXTT5=
EXTT6=
PLAYORDER=
